<svg width="139" height="24" xmlns="http://www.w3.org/2000/svg"><g fill="none" fill-rule="evenodd"><path d="M101.605 8.495c1.35 1.49 2.025 3.514 2.025 6.077v.887c0 .24-.088.449-.262.624a.844.844 0 0 1-.62.262H91.517v.198c.043 1.445.484 2.578 1.322 3.4.837.82 1.92 1.231 3.248 1.231 1.088 0 1.932-.142 2.53-.426a5.205 5.205 0 0 0 1.617-1.216c.174-.175.332-.296.474-.362.14-.064.331-.097.57-.097h.98c.261 0 .479.087.653.262.175.175.25.383.228.625-.086.59-.408 1.199-.963 1.822-.554.624-1.35 1.15-2.383 1.577-1.034.427-2.27.641-3.706.641-1.393 0-2.634-.324-3.722-.97a7.103 7.103 0 0 1-2.595-2.677c-.642-1.138-1.028-2.42-1.16-3.843a24.203 24.203 0 0 1-.064-1.51c0-.351.02-.855.065-1.512.13-1.357.517-2.584 1.159-3.68a7.17 7.17 0 0 1 2.58-2.595c1.077-.634 2.322-.952 3.737-.952 2.329 0 4.169.745 5.518 2.234zm-.914 5.091v-.098c0-1.336-.42-2.403-1.257-3.203-.838-.8-1.954-1.198-3.347-1.198-1.262 0-2.334.405-3.215 1.214-.882.81-1.334 1.873-1.355 3.187v.098h9.174zm10.466 5.994a.898.898 0 0 1 .275.656v2.31a.897.897 0 0 1-.275.655.891.891 0 0 1-.653.277H108.2a.89.89 0 0 1-.653-.277.894.894 0 0 1-.276-.655v-2.31c0-.253.092-.472.276-.656a.889.889 0 0 1 .653-.276h2.304a.89.89 0 0 1 .653.276zM139 15.163c0 .525-.022 1.03-.065 1.512-.197 2.233-.965 4.012-2.307 5.338-1.341 1.324-3.157 1.987-5.447 1.987s-4.105-.663-5.446-1.987c-1.342-1.326-2.11-3.105-2.307-5.338-.022-.242-.032-.745-.032-1.512 0-.81.01-1.335.032-1.577.174-2.234.938-4.012 2.29-5.338 1.352-1.324 3.173-1.987 5.463-1.987s4.11.663 5.464 1.987c1.352 1.326 2.115 3.104 2.29 5.338.043.482.065 1.008.065 1.577zm-4.433-4.796c-.796-.854-1.925-1.281-3.386-1.281s-2.59.427-3.385 1.281c-.797.854-1.26 1.982-1.39 3.383-.023.263-.034.735-.034 1.413 0 .658.011 1.106.033 1.347.131 1.402.594 2.53 1.39 3.384.796.854 1.925 1.28 3.386 1.28s2.59-.426 3.386-1.28c.796-.854 1.26-1.982 1.39-3.384.044-.482.066-.93.066-1.347 0-.416-.022-.887-.065-1.413-.131-1.4-.595-2.529-1.39-3.383zm-15.923 12.847a.847.847 0 0 1-.624.264h-1.212a.844.844 0 0 1-.624-.264.858.858 0 0 1-.262-.629V7.177c0-.243.087-.453.262-.63a.847.847 0 0 1 .624-.263h1.212a.85.85 0 0 1 .624.263.865.865 0 0 1 .262.63v15.408a.86.86 0 0 1-.262.629zM118.35 3.67h-1.87a.843.843 0 0 1-.622-.265.86.86 0 0 1-.264-.628V.893c0-.242.088-.452.264-.628a.846.846 0 0 1 .622-.265h1.87c.24 0 .448.088.622.265a.862.862 0 0 1 .263.628v1.885a.86.86 0 0 1-.263.628.844.844 0 0 1-.622.265zM84.11 23.214a.907.907 0 0 1-.653.264H82.19a.903.903 0 0 1-.652-.264.84.84 0 0 1-.274-.629V.893c0-.242.09-.452.274-.628A.907.907 0 0 1 82.19 0h1.268a.91.91 0 0 1 .653.265.845.845 0 0 1 .273.628v21.692c0 .243-.09.453-.273.629zM26.464 11.188c0-.897.246-1.719.739-2.463.492-.744 1.226-1.342 2.2-1.79.975-.45 2.168-.674 3.579-.674 1.388 0 2.587.197 3.595.591 1.008.394 1.775.887 2.301 1.48.526.59.79 1.16.79 1.707 0 .219-.09.41-.27.574a.91.91 0 0 1-.637.248h-1.109c-.426 0-.762-.154-1.008-.461-.695-.876-1.915-1.314-3.662-1.314-1.03 0-1.865.186-2.503.558-.639.373-.958.887-.958 1.544 0 .548.156.964.47 1.25.314.283.784.513 1.412.688.626.176 1.735.439 3.326.789 1.971.416 3.37 1.052 4.2 1.906.828.854 1.243 1.893 1.243 3.12 0 .898-.287 1.73-.857 2.496-.571.767-1.39 1.385-2.453 1.856-1.064.47-2.301.707-3.712.707-1.39 0-2.616-.214-3.68-.641-1.063-.427-1.887-.947-2.469-1.56-.583-.613-.873-1.194-.873-1.742 0-.218.089-.41.269-.574a.909.909 0 0 1 .638-.247h1.21c.2 0 .38.022.537.066.156.044.302.164.437.361.739 1.008 2.05 1.511 3.93 1.511 1.053 0 1.977-.213 2.773-.64.794-.427 1.192-.958 1.192-1.594 0-.525-.196-.946-.588-1.264-.392-.317-.957-.58-1.696-.789-.74-.207-1.894-.476-3.46-.804-3.272-.679-4.906-2.31-4.906-4.895zm22.627-4.83c.656-.412 1.531-.619 2.625-.619 2.56 0 4.354.97 5.382 2.912.634-.937 1.356-1.657 2.166-2.159.81-.502 1.871-.753 3.183-.753 2.144 0 3.735.659 4.775 1.975 1.038 1.316 1.558 3.18 1.558 5.59v9.27a.876.876 0 0 1-.262.637.845.845 0 0 1-.624.267H66.68a.838.838 0 0 1-.623-.267.875.875 0 0 1-.263-.636v-8.937c0-3.347-1.291-5.02-3.871-5.02-1.183 0-2.123.401-2.823 1.204-.7.804-1.05 1.997-1.05 3.582v9.17a.88.88 0 0 1-.262.637.843.843 0 0 1-.624.267h-1.215a.837.837 0 0 1-.622-.267.875.875 0 0 1-.264-.636v-8.937c0-3.347-1.29-5.02-3.87-5.02-1.183 0-2.123.401-2.824 1.204-.7.804-1.05 1.997-1.05 3.582v9.17a.88.88 0 0 1-.262.637.843.843 0 0 1-.624.267H45.22a.837.837 0 0 1-.623-.267.875.875 0 0 1-.263-.636V6.978a.88.88 0 0 1 .263-.637.843.843 0 0 1 .623-.267h1.214c.241 0 .449.09.624.267.174.179.262.391.262.637v1.036c.525-.69 1.116-1.242 1.772-1.656zm26.9 16.856a.847.847 0 0 1-.623.264h-1.213a.844.844 0 0 1-.623-.264.858.858 0 0 1-.262-.629V7.177c0-.243.087-.453.262-.63a.847.847 0 0 1 .623-.263h1.213a.85.85 0 0 1 .624.263.865.865 0 0 1 .261.63v15.408a.86.86 0 0 1-.261.629zm.328-19.808a.844.844 0 0 1-.622.265h-1.87a.843.843 0 0 1-.623-.265.86.86 0 0 1-.263-.628V.893c0-.242.088-.452.263-.628A.846.846 0 0 1 73.827 0h1.87c.24 0 .447.088.622.265a.862.862 0 0 1 .263.628v1.885a.86.86 0 0 1-.263.628z" fill="#424242"/><path d="M14.787 10.435H13.57a.867.867 0 0 0-.626.253c-.159.154-.258.336-.264.543-.004.127-.022.869-.066 1.337-.131 1.359-.598 2.451-1.4 3.278-.795.822-1.919 1.235-3.373 1.242-1.456-.006-2.581-.42-3.377-1.242-.801-.827-1.268-1.92-1.4-3.278-.043-.468-.062-1.21-.065-1.337-.006-.207-.106-.389-.265-.543a.867.867 0 0 0-.626-.253H.89a.87.87 0 0 0-.627.253c-.159.154-.263.306-.263.574 0 0 .043 1.22.066 1.464.197 2.166.971 3.89 2.322 5.174 1.338 1.273 3.146 1.914 5.423 1.926h.054c2.278-.012 4.085-.653 5.423-1.926 1.352-1.284 2.125-3.008 2.323-5.174.023-.244.066-1.464.066-1.464 0-.268-.105-.42-.263-.574a.87.87 0 0 0-.627-.253z" fill="#FFC828"/></g></svg>