<svg fill="none" height="100" viewBox="0 0 376 100" width="376" xmlns="http://www.w3.org/2000/svg"><g fill="#9a7b35"><path d="m1.73068 69.4456h60.43482v-60.43441h-60.43482zm62.16542 1.731h-63.8961v-63.89608h63.8961z"/><path d="m126.222 69.4364h60.435v-60.43444h-60.435zm62.165 1.7307h-63.896v-63.8961h63.896z"/><path d="m250.516 69.4548h60.436v-60.43451h-60.436zm62.167 1.7306h-63.897v-63.89609h63.897z"/><path d="m63.8957 69.4481h60.4343v-60.43447h-60.4343zm62.1653 1.731h-63.896v-63.89614h63.896z"/><path d="m188.387 69.4364h60.436v-60.43444h-60.436zm62.166 1.7307h-63.897v-63.8961h63.897z"/><path d="m312.683 69.4548h60.433v-60.43451h-60.433zm62.167 1.7306h-63.897v-63.89609h63.897z"/><path d="m172.846 54.402 13.811 13.8108v-59.21088h-13.811zm15.541 16.4262h-1.53l-15.742-15.7094v-47.84756h17.272z"/><path d="m126.222 69.4364h59.211l-59.211-59.2109zm63.389 1.7307h-65.12v-63.38463l2.038.3248z"/><path d="m94.1129 9.01364c-16.6619 0-30.2172 13.55526-30.2172 30.21726 0 16.6619 13.5553 30.2172 30.2172 30.2172 16.6621 0 30.2171-13.5553 30.2171-30.2172 0-16.662-13.555-30.21726-30.2171-30.21726zm0 62.16516c-17.616 0-31.9479-14.3319-31.9479-31.9479 0-17.6161 14.3319-31.94794 31.9479-31.94794 17.6161 0 31.9481 14.33184 31.9481 31.94794 0 17.616-14.332 31.9479-31.9481 31.9479z"/><path d="m94.1131 24.4997c-8.1227 0-14.7311 6.6084-14.7311 14.7311s6.6084 14.7311 14.7311 14.7311c8.1229 0 14.7309-6.6084 14.7309-14.7311s-6.608-14.7311-14.7309-14.7311zm0 31.1928c-9.0771 0-16.4617-7.3846-16.4617-16.4617s7.3846-16.4618 16.4617-16.4618c9.0769 0 16.4619 7.3847 16.4619 16.4618s-7.385 16.4617-16.4619 16.4617z"/><path d="m188.387 69.4364h30.217c16.662 0 30.217-13.5553 30.217-30.2173 0-16.6619-13.555-30.21718-30.217-30.21718h-30.217zm30.217 1.7307h-31.948v-63.89586h31.948c17.616 0 31.948 14.33186 31.948 31.94786 0 17.6161-14.332 31.948-31.948 31.948z"/><path d="m203.873 53.9501h14.731c8.123 0 14.731-6.6084 14.731-14.7311s-6.608-14.7308-14.731-14.7308h-14.731zm14.731 1.7307h-16.461v-32.9232h16.461c9.077 0 16.462 7.3846 16.462 16.4614 0 9.0771-7.385 16.4618-16.462 16.4618z"/><path d="m126.222 69.4363h13.811v-45.4l-13.811-13.8108zm15.541 1.7307h-17.272v-63.31222l1.461-.25249 15.811 15.71711z"/><path d="m124.584 7.53648 1.224 1.22377-62.1657 62.16525-1.2237-1.2237z"/><path d="m124.584 7.53648 1.224 1.22377-62.1657 62.16525-1.2237-1.2237z"/><path d="m187.522 69.4365h60.542v1.7307h-60.542z"/><path d="m63.0309 69.4485h60.5421v1.7307h-60.5421z"/><path d="m310.953 10.2439-59.211 59.2109h59.211zm-61.3 60.9419-.612-1.4776 62.165-62.16548 1.478.61195-.001 62.16543-.865.8654z"/><path d="m311.816 53.9133v1.731h-46.624v-1.731z"/><path d="m373.369 29.5325 1.224 1.2236-40.176 40.1758-1.224-1.2236z"/><path d="m21.5647 50.838-1.2239-1.2239 41.6997-41.72658 1.229-.24592.626.08486.0003 30.24234h-1.731v-27.7312z"/><path d="m48.3547 69.4484h13.8108v-59.2108l-13.8108 13.8107zm14.6761 1.7307h-15.5414l-.8654-.8653v-46.624l.2534-.612 15.5414-15.54142 1.4773.61195v62.16547z"/><path d="m297.142 69.4547h13.811v-59.2109l-13.811 13.8107zm15.541 1.7306h-17.272v-47.8476l15.548-15.4473 1.724-.07619z"/><path d="m188.331 69.4364h13.811v-60.43444h-13.811zm15.542 1.7307h-17.272v-63.8961h17.272z"/><path d="m188.331 69.4365h13.811v-13.8108h-13.811zm15.542 1.7306h-17.272v-17.2721h17.272z"/><path d="m342.288 38.6253 1.224 1.2238-31.083 31.0827-1.224-1.2238z"/><path d="m313.905 9.01998 28.994 28.99332 28.993-28.99332zm29.606 30.82922h-1.224l-31.083-31.0826.612-1.47729h62.165l.612 1.47729z"/><path d="m289.217 7.54283 1.223 1.22377-40.176 40.176-1.223-1.2238z"/><path d="m1.53482 7.48357 30.91638 31.13773-1.2279 1.2192-30.916403-31.13774z"/><path d="m17.2719 70.3136h-1.7307v-46.2672l-13.75486-13.8535v19.8896h-1.7306759v-21.9893l1.4793859-.60956 15.48555 15.59646.2513.6095z"/><path d="m31.9483 62.4441-16.1534-16.1537 1.2239-1.2236 14.9295 14.9295 30.4709-30.4709 1.2239 1.2239z"/><path d="m342.9 62.4512-16.153-16.1537 1.224-1.2236 14.929 14.9298 30.471-30.4712 1.224 1.2239z"/><path d="m155.771 39.7759-29.55-29.5503v19.9001h-1.731l.001-22.21676 2.025.16404 30.479 30.47902z"/><path d="m125.968 29.5134 40.176 40.1763-1.224 1.224-40.176-40.1764z"/><path d="m312.374 29.4774 31.138 31.1383-1.224 1.2238-31.138-31.1383z"/><path d="m234.2 38.3538h15.487v1.7306h-15.487z"/><path d="m285.794 90.6611c.879 0 1.723-.555 2.07-1.1447v1.0406h.959v-8.9374h-.959v3.8617c-.347-.5896-.972-1.0752-1.977-1.0752-1.665 0-2.822 1.3065-2.822 3.1564v.0925c0 1.8846 1.145 3.0061 2.729 3.0061zm.104-.7978c-1.017 0-1.838-.7284-1.838-2.2546v-.0925c0-1.4683.717-2.3124 1.919-2.3124 1.179 0 1.919.7284 1.919 2.2777v.0925c0 1.5493-.878 2.2893-2 2.2893z"/><path d="m290.766 90.5572h.959v-3.3183c0-1.4915.775-1.873 1.989-1.9308v-.9019c-1.087.0347-1.607.5088-1.989 1.1909v-1.0868h-.959z"/><path d="m295.136 90.557h.96v-6.0469h-.96zm.463-7.3072c.347 0 .636-.289.636-.6359 0-.3468-.289-.6359-.636-.6359s-.636.2891-.636.6359c0 .3469.289.6359.636.6359z"/><path d="m298.06 90.5572h.959v-3.6651c0-1.0869.798-1.6534 1.688-1.6534.971 0 1.422.4741 1.422 1.5378v3.7807h.96v-3.7114c0-1.7574-.879-2.4396-2.127-2.4396-.995 0-1.665.4972-1.943 1.0637v-.9596h-.959z"/><path d="m304.974 90.557h.959v-3.1333l2.683 3.1333h1.167l-2.809-3.2373 2.59-2.8096h-1.122l-2.509 2.7864v-5.6769h-.959z"/><path d="m310.94 90.5572h.96v-3.6998c0-1.0868.809-1.6187 1.596-1.6187.832 0 1.283.4394 1.283 1.5031v3.8154h.96v-3.6998c0-1.0868.809-1.6187 1.595-1.6187.833 0 1.284.4394 1.284 1.5031v3.8154h.959v-3.7461c0-1.7574-.948-2.4049-2.035-2.4049-.751 0-1.653.3469-2.069 1.1331-.312-.8093-.995-1.1331-1.769-1.1331-.867 0-1.526.4625-1.804 1.0291v-.925h-.96z"/><path d="m323.982 89.8635c-1.225 0-1.977-.9018-1.977-2.2777v-.0925c0-1.3874.763-2.2893 1.977-2.2893 1.203 0 1.977.9019 1.977 2.3009v.0809c0 1.3643-.763 2.2777-1.977 2.2777zm-.011.7978c1.722 0 2.983-1.2603 2.983-3.0871v-.0925c0-1.8152-1.261-3.0755-2.972-3.0755s-2.971 1.2719-2.971 3.0871v.0925c0 1.769 1.237 3.0755 2.96 3.0755z"/><path d="m328.445 90.5572h.96v-3.6651c0-1.0869.798-1.6534 1.688-1.6534.971 0 1.422.4741 1.422 1.5378v3.7807h.96v-3.7114c0-1.7574-.879-2.4396-2.128-2.4396-.994 0-1.665.4972-1.942 1.0637v-.9596h-.96z"/><path d="m337.637 90.6611c.879 0 1.723-.555 2.069-1.1447v1.0406h.96v-8.9374h-.96v3.8617c-.346-.5896-.971-1.0752-1.977-1.0752-1.665 0-2.821 1.3065-2.821 3.1564v.0925c0 1.8846 1.145 3.0061 2.729 3.0061zm.104-.7978c-1.018 0-1.838-.7284-1.838-2.2546v-.0925c0-1.4683.716-2.3124 1.919-2.3124 1.179 0 1.919.7284 1.919 2.2777v.0925c0 1.5493-.879 2.2893-2 2.2893z"/><path d="m344.123 90.6613c.89 0 1.434-.3006 1.885-.8672v.7631h.959v-3.9889c0-1.688-1.052-2.1621-2.208-2.1621-1.168 0-2.266.5088-2.393 1.8846h.959c.093-.7399.555-1.0868 1.388-1.0868.925 0 1.295.4047 1.295 1.3643v.4394h-.867c-1.55 0-3.03.474-3.03 1.873 0 1.2372.891 1.7806 2.012 1.7806zm.093-.7631c-.844 0-1.145-.3931-1.145-1.0175 0-.8902.89-1.1909 2.104-1.1909h.833v.7516c0 .9365-.775 1.4568-1.792 1.4568z"/><path d="m349.221 92.6614h.971l3.341-8.1511h-.982l-1.677 4.3357-1.85-4.3357h-1.029l2.37 5.4225z"/><path d="m354.642 90.6152c.405 0 .74-.3238.74-.74s-.335-.7399-.74-.7399c-.404 0-.74.3237-.74.7399s.336.74.74.74z"/><path d="m359.466 90.6613c1.457 0 2.509-.9712 2.636-2.2777h-.89c-.104.9827-.879 1.4799-1.735 1.4799-1.167 0-1.977-.7862-1.977-2.2662v-.0924c0-1.4222.844-2.3009 1.943-2.3009.832 0 1.526.3584 1.676 1.3181h.948c-.185-1.5378-1.364-2.1159-2.624-2.1159-1.619 0-2.937 1.2487-2.937 3.0987v.0924c0 1.8731 1.272 3.064 2.96 3.064z"/><path d="m366.066 89.8635c-1.225 0-1.977-.9018-1.977-2.2777v-.0925c0-1.3874.763-2.2893 1.977-2.2893 1.203 0 1.977.9019 1.977 2.3009v.0809c0 1.3643-.763 2.2777-1.977 2.2777zm-.011.7978c1.722 0 2.983-1.2603 2.983-3.0871v-.0925c0-1.8152-1.261-3.0755-2.972-3.0755s-2.971 1.2719-2.971 3.0871v.0925c0 1.769 1.237 3.0755 2.96 3.0755z"/></g></svg>